<svg width="117" height="108" viewBox="0 0 117 108" fill="none" xmlns="http://www.w3.org/2000/svg">
<mask id="mask0_497_28" style="mask-type:alpha" maskUnits="userSpaceOnUse" x="0" y="0" width="117" height="108">
<rect width="117" height="108" fill="#D9D9D9"/>
</mask>
<g mask="url(#mask0_497_28)">
<path d="M34.9792 97C32.5833 97 30.5388 96.1714 28.8457 94.5144C27.1527 92.8581 26.3061 90.8666 26.3061 88.5398C26.3061 86.2139 27.1596 84.2291 28.8665 82.5855C30.5727 80.9419 32.6241 80.1201 35.0208 80.1201C37.4167 80.1201 39.4612 80.9486 41.1543 82.6057C42.8473 84.262 43.6939 86.2535 43.6939 88.5803C43.6939 90.907 42.8404 92.8918 41.1335 94.5346C39.4273 96.1782 37.3759 97 34.9792 97ZM83.6429 97C81.2118 97 79.1706 96.1714 77.5192 94.5144C75.8669 92.8581 75.0408 90.8666 75.0408 88.5398C75.0408 86.2139 75.8833 84.2291 77.5682 82.5855C79.2523 80.9419 81.2771 80.1201 83.6429 80.1201C86.1147 80.1201 88.1763 80.9486 89.8278 82.6057C91.48 84.262 92.3061 86.2535 92.3061 88.5803C92.3061 90.907 91.4698 92.8918 89.7971 94.5346C88.1253 96.1782 86.0739 97 83.6429 97ZM25.7894 9.39093H107L83.2449 51.4718H41L34.8776 62.8836H93.6531V72.2745H17.9796L32.9184 46.3603L15.0408 9.39093H5V0H21.2857L25.7894 9.39093Z" fill="#0C1D25"/>
</g>
</svg>
