<svg width="46" height="48" viewBox="0 0 46 48" fill="none" xmlns="http://www.w3.org/2000/svg">
<path d="M22.5728 47.7898C35.0395 47.7898 45.1457 37.0917 45.1457 23.8949C45.1457 10.6981 35.0395 0 22.5728 0C10.1062 0 0 10.6981 0 23.8949C0 37.0917 10.1062 47.7898 22.5728 47.7898Z" fill="white"/>
<path d="M35.2236 15.9971C35.2236 15.8591 35.2202 15.852 35.0831 15.8555C34.7521 15.8555 34.4243 15.8166 34.0999 15.7635C32.9195 15.5759 29.0871 13.4483 28.4383 9.96852C28.425 9.90126 28.2812 9.03751 28.2812 8.66935C28.2812 8.50651 28.2812 8.50297 28.1273 8.50297C28.0905 8.50297 28.0571 8.50297 28.0203 8.50297C26.5222 8.50297 25.0206 8.50297 23.5225 8.50297C23.2215 8.50297 23.2616 8.46403 23.2616 8.78263C23.2616 15.6644 23.2616 22.5461 23.2616 29.4278C23.2616 29.6862 23.2549 29.9411 23.2115 30.1925C22.9841 31.5235 22.342 32.5678 21.2518 33.2793C20.3088 33.8953 19.2821 34.0723 18.1919 33.8422C17.8475 33.7714 17.5265 33.6333 17.2054 33.4988C17.1787 33.474 17.1519 33.4492 17.1285 33.4245C17.0215 33.3289 16.9011 33.2475 16.7841 33.1625C15.3963 32.1465 14.7375 30.7341 14.9381 28.9676C15.1421 27.1764 16.1152 25.9586 17.7204 25.3321C18.1986 25.1444 18.7036 25.0666 19.2152 25.0984C19.5463 25.1161 19.874 25.1621 20.1917 25.2577C20.3021 25.2896 20.3623 25.2506 20.369 25.1267C20.369 25.0843 20.369 25.0382 20.369 24.9958C20.369 23.7603 20.3255 21.0628 20.3188 21.0558C20.3188 20.7018 20.3188 20.3442 20.3288 19.9902C20.3288 19.8876 20.282 19.8699 20.2018 19.8592C19.5965 19.7849 18.9912 19.7672 18.3826 19.8168C17.5432 19.8805 16.7272 20.0646 15.9347 20.3655C14.6706 20.8469 13.5637 21.5903 12.6072 22.5815C11.7846 23.4346 11.1392 24.4187 10.6677 25.5303C10.2129 26.5923 9.95536 27.7074 9.88179 28.8685C9.85169 29.3712 9.85503 29.8774 9.90185 30.3836C9.96205 31.081 10.0891 31.7642 10.2898 32.4333C10.865 34.3519 11.915 35.9237 13.4032 37.1733C13.5536 37.3007 13.7008 37.4388 13.8814 37.5202C13.9583 37.591 14.0319 37.6618 14.1088 37.7326C14.3495 37.9238 14.607 38.0902 14.8779 38.2282C16.5433 39.0991 18.299 39.4531 20.1483 39.2159C22.5493 38.9044 24.5491 37.7786 26.1209 35.8387C27.6023 34.0121 28.3213 31.8704 28.3347 29.4738C28.3547 26.0471 28.338 22.6204 28.3414 19.1902C28.3414 19.1088 28.2979 18.9919 28.3815 18.9495C28.4484 18.9176 28.5153 19.0096 28.5788 19.0557C29.7827 19.8946 31.0835 20.5 32.4914 20.8398C33.3107 21.0381 34.1367 21.1584 34.9795 21.1584C35.2436 21.1584 35.2804 21.1443 35.2804 20.8646C35.2804 19.6468 35.2202 16.3193 35.2236 15.9971Z" fill="#0E1217"/>
</svg>
