<svg width="46" height="48" viewBox="0 0 46 48" fill="none" xmlns="http://www.w3.org/2000/svg">
<path d="M23.4273 47.7898C35.894 47.7898 46.0002 37.0917 46.0002 23.8949C46.0002 10.6981 35.894 0 23.4273 0C10.9607 0 0.854492 10.6981 0.854492 23.8949C0.854492 37.0917 10.9607 47.7898 23.4273 47.7898Z" fill="white"/>
<path d="M18.8656 37.6583C29.8912 37.6583 35.9206 27.9906 35.9206 19.6044C35.9206 19.3283 35.9139 19.0557 35.9039 18.7831C37.0743 17.8875 38.091 16.7689 38.8935 15.498C37.8201 16.0042 36.663 16.3441 35.4524 16.4963C36.6898 15.7104 37.6395 14.4679 38.0876 12.9882C36.9306 13.7138 35.6464 14.2448 34.282 14.528C33.1885 13.2961 31.6301 12.5244 29.9079 12.5244C26.5972 12.5244 23.9119 15.367 23.9119 18.8681C23.9119 19.3672 23.9654 19.8486 24.0691 20.3159C19.0863 20.0504 14.6687 17.5264 11.7159 13.6855C11.2009 14.6236 10.9032 15.7139 10.9032 16.8751C10.9032 19.0769 11.96 21.0204 13.5718 22.1567C12.5887 22.1249 11.6657 21.8381 10.8564 21.3638C10.8564 21.3885 10.8564 21.4169 10.8564 21.4452C10.8564 24.5179 12.9231 27.0844 15.6653 27.6649C15.1603 27.8101 14.6319 27.8879 14.0868 27.8879C13.7023 27.8879 13.3244 27.849 12.9599 27.7747C13.7223 30.2951 15.9361 32.1288 18.5579 32.1819C16.5046 33.8847 13.923 34.8971 11.1139 34.8971C10.629 34.8971 10.1541 34.8688 9.68262 34.8086C12.3345 36.6069 15.4847 37.6583 18.8689 37.6583" fill="#0E1217"/>
</svg>
