<svg width="77" height="92" viewBox="0 0 77 92" fill="none" xmlns="http://www.w3.org/2000/svg">
<path d="M64.3781 48.4216C64.3371 40.9139 67.733 35.2473 74.6065 31.0741C70.7606 25.5712 64.9509 22.5436 57.2795 21.9503C50.0173 21.3775 42.08 26.1849 39.1751 26.1849C36.1065 26.1849 29.0693 22.1549 23.546 22.1549C12.131 22.339 0 31.2582 0 49.4036C0 54.7633 0.981934 60.3003 2.9458 66.0146C5.56429 73.5223 15.0154 91.9336 24.8757 91.6267C30.0308 91.504 33.6722 87.9649 40.382 87.9649C46.8874 87.9649 50.2627 91.6267 56.0112 91.6267C65.9532 91.4835 74.5042 74.7497 77 67.2216C63.6621 60.9413 64.3781 48.8103 64.3781 48.4216ZM52.7994 14.8313C58.3842 8.20324 57.8727 2.16844 57.7091 0C52.779 0.286397 47.0715 3.35494 43.8188 7.13948C40.2388 11.19 38.1318 16.2019 38.5818 21.848C43.9211 22.2572 48.7899 19.5159 52.7994 14.8313Z" fill="black"/>
</svg>
