<svg width="102" height="102" viewBox="0 0 102 102" fill="none" xmlns="http://www.w3.org/2000/svg">
<path d="M74.3736 59.4997C73.1294 63.8279 70.6635 67.7056 67.2715 70.6681C63.8794 73.6305 59.705 75.5519 55.2486 76.2022C51.7638 76.7078 48.2127 76.504 44.8085 75.603C41.4044 74.702 38.2173 73.1225 35.4388 70.9592C32.6603 68.796 30.3475 66.0935 28.6394 63.0142C26.9313 59.9349 25.863 56.5421 25.4987 53.0397C25.2164 49.5234 25.6668 45.9869 26.8213 42.6537C27.9759 39.3204 29.8094 36.263 32.206 33.6746C34.6026 31.0863 37.5102 29.0233 40.7449 27.6162C43.9797 26.209 47.4711 25.4884 50.9986 25.4997C54.3041 25.5043 57.5784 26.139 60.6462 27.3697C61.1292 27.5865 61.6759 27.6152 62.179 27.4501C62.6821 27.2851 63.1055 26.9381 63.3661 26.4772L69.4862 15.2147C69.6179 14.9553 69.6971 14.6724 69.7192 14.3823C69.7414 14.0922 69.7061 13.8006 69.6152 13.5242C69.5244 13.2478 69.3799 12.992 69.19 12.7716C69.0001 12.5511 68.7686 12.3704 68.5087 12.2397C61.937 9.26429 54.716 8.01067 47.526 8.59686C40.336 9.18305 33.4135 11.5898 27.4105 15.5903C21.4076 19.5909 16.5217 25.0536 13.2131 31.464C9.90451 37.8744 8.28209 45.0215 8.49865 52.2322C8.91747 62.9417 13.3197 73.1091 20.8431 80.7425C28.3665 88.3759 38.4688 92.9254 49.1712 93.4997C60.3823 93.9968 71.3351 90.0396 79.6396 82.4916C87.9441 74.9435 92.9261 64.4173 93.4986 53.2097C93.4986 52.3597 93.4986 47.4722 93.4986 44.7097C93.4878 44.1495 93.2604 43.6153 92.8642 43.2191C92.468 42.8229 91.9338 42.5955 91.3736 42.5847H53.1236C52.5601 42.5847 52.0196 42.8085 51.621 43.2071C51.2225 43.6056 50.9986 44.1461 50.9986 44.7097V57.4597C50.9986 58.0233 51.2225 58.5638 51.621 58.9623C52.0196 59.3608 52.5601 59.5847 53.1236 59.5847H74.3736" fill="black"/>
</svg>
