<svg width="92" height="90" viewBox="0 0 92 90" fill="none" xmlns="http://www.w3.org/2000/svg">
<path d="M81.5983 0H9.7918C7.19485 0 4.70427 1.01594 2.86795 2.82433C1.03163 4.63271 0 7.08541 0 9.64286L0 80.3571C0 82.9146 1.03163 85.3673 2.86795 87.1757C4.70427 88.9841 7.19485 90 9.7918 90H37.7902V59.402H24.9385V45H37.7902V34.0232C37.7902 21.5377 45.3381 14.6411 56.8985 14.6411C62.4349 14.6411 68.2243 15.6134 68.2243 15.6134V27.8679H61.8454C55.5603 27.8679 53.5999 31.7089 53.5999 35.6484V45H67.6307L65.3867 59.402H53.5999V90H81.5983C84.1952 90 86.6858 88.9841 88.5221 87.1757C90.3585 85.3673 91.3901 82.9146 91.3901 80.3571V9.64286C91.3901 7.08541 90.3585 4.63271 88.5221 2.82433C86.6858 1.01594 84.1952 0 81.5983 0Z" fill="black"/>
</svg>
