<svg width="45" height="45" viewBox="0 0 45 45" fill="none" xmlns="http://www.w3.org/2000/svg">
<mask id="mask0_668_24" style="mask-type:alpha" maskUnits="userSpaceOnUse" x="0" y="0" width="45" height="45">
<rect width="45" height="45" fill="#D9D9D9"/>
</mask>
<g mask="url(#mask0_668_24)">
<path d="M22.5003 24.3984L12.7034 34.1953C12.4222 34.4766 12.1019 34.6172 11.7425 34.6172C11.3831 34.6172 11.0706 34.4766 10.805 34.1953C10.5238 33.9141 10.387 33.5977 10.3948 33.2461C10.4027 32.8945 10.5394 32.5859 10.805 32.3203L20.6019 22.5L10.805 12.6797C10.5394 12.4141 10.4066 12.1055 10.4066 11.7539C10.4066 11.4023 10.5394 11.0859 10.805 10.8047C11.0706 10.5234 11.3831 10.3828 11.7425 10.3828C12.1019 10.3828 12.4222 10.5156 12.7034 10.7813L22.5003 20.6016L32.3206 10.7813C32.5863 10.5156 32.8988 10.3828 33.2581 10.3828C33.6175 10.3828 33.9378 10.5234 34.2191 10.8047C34.4847 11.0859 34.6136 11.4023 34.6058 11.7539C34.598 12.1055 34.4613 12.4141 34.1956 12.6797L24.3988 22.5L34.1956 32.3203C34.4613 32.5859 34.5941 32.8945 34.5941 33.2461C34.5941 33.5977 34.4613 33.9141 34.1956 34.1953C33.93 34.4766 33.6175 34.6172 33.2581 34.6172C32.8988 34.6172 32.5863 34.4766 32.3206 34.1953L22.5003 24.3984Z" fill="#E8EAEB"/>
</g>
</svg>
