<svg width="25" height="25" viewBox="0 0 25 25" fill="none" xmlns="http://www.w3.org/2000/svg">
<path d="M12.5003 14.3984L2.70344 24.1953C2.42219 24.4766 2.10188 24.6172 1.7425 24.6172C1.38313 24.6172 1.07063 24.4766 0.805004 24.1953C0.523754 23.9141 0.387035 23.5977 0.394848 23.2461C0.40266 22.8945 0.539379 22.5859 0.805004 22.3203L10.6019 12.5L0.805004 2.67969C0.539379 2.41406 0.406567 2.10547 0.406567 1.75391C0.406567 1.40234 0.539379 1.08594 0.805004 0.804688C1.07063 0.523438 1.38313 0.382812 1.7425 0.382812C2.10188 0.382812 2.42219 0.515625 2.70344 0.78125L12.5003 10.6016L22.3206 0.78125C22.5863 0.515625 22.8988 0.382812 23.2581 0.382812C23.6175 0.382812 23.9378 0.523438 24.2191 0.804688C24.4847 1.08594 24.6136 1.40234 24.6058 1.75391C24.598 2.10547 24.4613 2.41406 24.1956 2.67969L14.3988 12.5L24.1956 22.3203C24.4613 22.5859 24.5941 22.8945 24.5941 23.2461C24.5941 23.5977 24.4613 23.9141 24.1956 24.1953C23.93 24.4766 23.6175 24.6172 23.2581 24.6172C22.8988 24.6172 22.5863 24.4766 22.3206 24.1953L12.5003 14.3984Z" fill="#E8EAEB"/>
</svg>
