<svg width="47" height="48" viewBox="0 0 47 48" fill="none" xmlns="http://www.w3.org/2000/svg">
<path d="M23.5006 47.7898C35.9672 47.7898 46.0734 37.0917 46.0734 23.8949C46.0734 10.6981 35.9672 0 23.5006 0C11.034 0 0.927734 10.6981 0.927734 23.8949C0.927734 37.0917 11.034 47.7898 23.5006 47.7898Z" fill="white"/>
<path d="M23.501 11.5617C27.2966 11.5617 27.7447 11.5759 29.2429 11.6502C30.6274 11.7175 31.3798 11.9617 31.8814 12.1671C32.5436 12.4396 33.0184 12.7653 33.5167 13.2928C34.015 13.8202 34.3226 14.3194 34.5801 15.0238C34.7741 15.5548 35.0048 16.3513 35.0684 17.8169C35.1352 19.4028 35.152 19.8807 35.152 23.895C35.152 27.9094 35.1386 28.3873 35.0684 29.9732C35.0048 31.4387 34.7741 32.2352 34.5801 32.7662C34.3226 33.4671 34.015 33.9698 33.5167 34.4973C33.0184 35.0247 32.5469 35.3504 31.8814 35.623C31.3798 35.8283 30.6274 36.0726 29.2429 36.1398C27.7447 36.2106 27.2966 36.2283 23.501 36.2283C19.7055 36.2283 19.2573 36.2142 17.7592 36.1398C16.3747 36.0726 15.6223 35.8283 15.1206 35.623C14.4585 35.3504 13.9837 35.0247 13.4854 34.4973C12.9871 33.9698 12.6794 33.4707 12.4219 32.7662C12.228 32.2352 11.9972 31.4387 11.9337 29.9732C11.8668 28.3873 11.8501 27.9094 11.8501 23.895C11.8501 19.8807 11.8635 19.4028 11.9337 17.8169C11.9972 16.3513 12.228 15.5548 12.4219 15.0238C12.6794 14.3229 12.9871 13.8202 13.4854 13.2928C13.9837 12.7653 14.4552 12.4396 15.1206 12.1671C15.6223 11.9617 16.3747 11.7175 17.7592 11.6502C19.2573 11.5794 19.7088 11.5617 23.501 11.5617ZM23.501 8.8501C19.6419 8.8501 19.157 8.8678 17.6421 8.94214C16.1306 9.01648 15.0972 9.26782 14.191 9.64305C13.258 10.0289 12.4654 10.5422 11.6729 11.3776C10.8836 12.2131 10.3954 13.0521 10.0342 14.0433C9.6831 14.9991 9.44232 16.0929 9.3721 17.6965C9.30187 19.3001 9.28516 19.8134 9.28516 23.8986C9.28516 27.9837 9.30187 28.497 9.3721 30.1006C9.44232 31.7007 9.67976 32.7946 10.0342 33.7539C10.3987 34.7415 10.8836 35.5805 11.6729 36.4195C12.4621 37.2549 13.2546 37.7718 14.191 38.1541C15.0939 38.5258 16.1272 38.7807 17.6421 38.855C19.157 38.9293 19.6419 38.947 23.501 38.947C27.3602 38.947 27.845 38.9293 29.3599 38.855C30.8715 38.7807 31.9048 38.5293 32.8111 38.1541C33.7441 37.7682 34.5366 37.2549 35.3292 36.4195C36.1184 35.5841 36.6067 34.7451 36.9678 33.7539C37.3189 32.7981 37.5597 31.7042 37.63 30.1006C37.7002 28.497 37.7169 27.9837 37.7169 23.8986C37.7169 19.8134 37.7002 19.3001 37.63 17.6965C37.5597 16.0964 37.3223 15.0026 36.9678 14.0433C36.6033 13.0556 36.1184 12.2166 35.3292 11.3776C34.54 10.5422 33.7474 10.0254 32.8111 9.64305C31.9082 9.27136 30.8748 9.01648 29.3599 8.94214C27.845 8.8678 27.3602 8.8501 23.501 8.8501Z" fill="#0E1217"/>
<path d="M23.501 16.1704C19.4713 16.1704 16.2041 19.629 16.2041 23.8947C16.2041 28.1603 19.4713 31.6189 23.501 31.6189C27.5307 31.6189 30.7979 28.1603 30.7979 23.8947C30.7979 19.629 27.5307 16.1704 23.501 16.1704ZM23.501 28.9108C20.8859 28.9108 18.7624 26.6665 18.7624 23.8947C18.7624 21.1228 20.8825 18.8785 23.501 18.8785C26.1194 18.8785 28.2396 21.1228 28.2396 23.8947C28.2396 26.6665 26.1194 28.9108 23.501 28.9108Z" fill="#0E1217"/>
<path d="M31.0893 17.6684C32.0312 17.6684 32.7948 16.8601 32.7948 15.863C32.7948 14.8659 32.0312 14.0576 31.0893 14.0576C30.1474 14.0576 29.3838 14.8659 29.3838 15.863C29.3838 16.8601 30.1474 17.6684 31.0893 17.6684Z" fill="#0E1217"/>
</svg>
