<svg width="46" height="48" viewBox="0 0 46 48" fill="none" xmlns="http://www.w3.org/2000/svg">
<path d="M22.5728 47.7898C35.0395 47.7898 45.1457 37.0917 45.1457 23.8949C45.1457 10.6981 35.0395 0 22.5728 0C10.1062 0 0 10.6981 0 23.8949C0 37.0917 10.1062 47.7898 22.5728 47.7898Z" fill="white"/>
<path d="M36.9928 16.2236C36.6484 14.8536 35.6284 13.7739 34.3309 13.4058C31.9833 12.7402 22.573 12.7402 22.573 12.7402C22.573 12.7402 13.1626 12.7402 10.815 13.4058C9.52085 13.7739 8.5009 14.8501 8.15311 16.2236C7.52442 18.7086 7.52441 23.8912 7.52441 23.8912C7.52441 23.8912 7.52442 29.0737 8.15311 31.5588C8.49756 32.9288 9.5175 34.0085 10.815 34.3766C13.1626 35.0421 22.573 35.0421 22.573 35.0421C22.573 35.0421 31.9833 35.0421 34.3309 34.3766C35.6251 34.0085 36.6451 32.9323 36.9928 31.5588C37.6215 29.0737 37.6215 23.8912 37.6215 23.8912C37.6215 23.8912 37.6215 18.7086 36.9928 16.2236ZM19.5633 28.6737V19.1157L27.3818 23.8947L19.5633 28.6737Z" fill="#0E1217"/>
</svg>
